<svg xmlns="http://www.w3.org/2000/svg" width="22" height="16" viewBox="0 0 22 16" fill="none">
<rect x="15.196" y="7.97229" width="4.76706" height="4.76706" rx="1.0552" transform="rotate(45 15.196 7.97229)" fill="white"/>
<path d="M6.53058 3.38722C6.91753 2.34152 8.39655 2.34152 8.7835 3.38722L9.53347 5.414C9.65513 5.74276 9.91434 6.00197 10.2431 6.12363L12.2699 6.8736C13.3156 7.26055 13.3156 8.73957 12.2699 9.12652L10.2431 9.87649C9.91434 9.99814 9.65513 10.2574 9.53347 10.5861L8.7835 12.6129C8.39655 13.6586 6.91753 13.6586 6.53058 12.6129L5.78061 10.5861C5.65896 10.2574 5.39974 9.99815 5.07098 9.87649L3.04421 9.12652C1.9985 8.73957 1.9985 7.26055 3.04421 6.8736L5.07098 6.12363C5.39974 6.00197 5.65896 5.74276 5.78061 5.414L6.53058 3.38722Z" fill="white"/>
</svg>