<svg width="16" height="16" viewBox="0 0 16 16" fill="none" xmlns="http://www.w3.org/2000/svg">
<g id="ChatRounded">
<path id="Vector" d="M13.3333 1.33334H2.66659C1.93325 1.33334 1.33992 1.93334 1.33992 2.66667L1.33325 14.6667L3.99992 12H13.3333C14.0666 12 14.6666 11.4 14.6666 10.6667V2.66667C14.6666 1.93334 14.0666 1.33334 13.3333 1.33334ZM4.66659 6H11.3333C11.6999 6 11.9999 6.3 11.9999 6.66667C11.9999 7.03334 11.6999 7.33334 11.3333 7.33334H4.66659C4.29992 7.33334 3.99992 7.03334 3.99992 6.66667C3.99992 6.3 4.29992 6 4.66659 6ZM8.66659 9.33334H4.66659C4.29992 9.33334 3.99992 9.03334 3.99992 8.66667C3.99992 8.3 4.29992 8 4.66659 8H8.66659C9.03325 8 9.33325 8.3 9.33325 8.66667C9.33325 9.03334 9.03325 9.33334 8.66659 9.33334ZM11.3333 5.33334H4.66659C4.29992 5.33334 3.99992 5.03334 3.99992 4.66667C3.99992 4.3 4.29992 4 4.66659 4H11.3333C11.6999 4 11.9999 4.3 11.9999 4.66667C11.9999 5.03334 11.6999 5.33334 11.3333 5.33334Z" fill="white"/>
</g>
</svg>
